<?xml version="1.0" encoding="UTF-8"?>
<!-- Created with Inkscape (http://www.inkscape.org/) -->
<svg version="1.1" viewBox="0 0 72.5 27.599" xmlns="http://www.w3.org/2000/svg" xmlns:xlink="http://www.w3.org/1999/xlink">
 <defs>
  <linearGradient id="linearGradient85870">
   <stop stop-color="#ec4e20" offset="0"/>
   <stop stop-color="#ffca3a" offset="1"/>
  </linearGradient>
  <linearGradient id="linearGradient85872-9" x1="30.673" x2="102.69" y1="56.809" y2="70.331" gradientUnits="userSpaceOnUse" xlink:href="#linearGradient85870"/>
 </defs>
 <g transform="translate(-68.75 -44.917)">
  <g transform="translate(38.56 -11.615)" fill="url(#linearGradient85872-9)" stroke="#f0f3f5">
   <g transform="matrix(1.1633 0 0 1 -4.9451 -.30212)" stroke-width=".5" aria-label="BACK">
    <path d="m34.649 69.706c-0.22152-1.7803-0.39422-3.0001-0.51779-3.6565-0.12376-0.6574-0.31906-1.371-0.58641-2.1419-0.26196-0.7731-0.54982-1.5568-0.86384-2.3515-0.30889-0.79731-0.64428-1.5622-1.0065-2.2947-0.36377-0.74038-0.71628-1.4574-1.0574-2.1507l3.5141 0.2267c3.8357 0.34875 5.9899 0.62282 6.5908 0.83299 0.60208 0.20903 1.0478 0.4877 1.3399 0.83622 0.29656 0.34764 0.51964 0.70626 0.66986 1.0763 0.15548 0.3654 0.26636 0.79432 0.3328 1.287 0.07193 0.48826-0.11354 0.89967-0.55825 1.236 0.51118 0.22514 0.90618 0.45841 1.1867 0.70027 0.285 0.23695 0.53351 0.5294 0.7459 0.87728 0.21723 0.34715 0.42034 0.76548 0.60942 1.2548 0.19401 0.48832 0.36336 1.0386 0.50823 1.651 0.1446 0.61121 0.17937 1.0666 0.10446 1.3673-0.06963 0.29676-0.25739 0.58829-0.56414 0.87524-0.30798 0.28809-0.65797 0.44642-1.0505 0.47424-0.38905 0.03229-1.4983 0.04372-3.3586 0.034l-4.568-0.02388-1.2959-0.0068zm1.9763-8.1306c1.2796 0.10256 2.0349 0.11338 2.2803 0.03385 0.24459-0.08372 0.45075-0.20697 0.61877-0.36968 0.17344-0.16645 0.23118-0.35944 0.17344-0.57936-0.05777-0.22008-0.18212-0.40266-0.37337-0.54788-0.1917-0.14556-0.46844-0.25056-0.83108-0.31495-0.36429-0.06914-0.92864-0.13641-1.6972-0.20203-0.76986-0.06584-1.1515-0.06915-1.1393-0.0095 0.01821 0.05555 0.13646 0.27612 0.35434 0.66094 0.2173 0.37928 0.422 0.82219 0.61418 1.3286zm1.7888 5.9891c1.0841 0.02087 1.9221 0.0216 2.5214 0.0025 0.59482-0.01894 0.90744-0.19577 0.94116-0.53049 0.03933-0.33879-0.01405-0.7039-0.16031-1.096-0.14653-0.39283-0.32725-0.69581-0.54239-0.90883-0.21004-0.21339-0.57181-0.35186-1.0874-0.41531-0.51892-0.06828-1.0616-0.10453-1.6285-0.10844-0.57091-0.0084-0.84306 0.01254-0.81344 0.06287 0.03554 0.04605 0.12432 0.33764 0.26615 0.87408 0.14159 0.5355 0.30941 1.2423 0.50329 2.1196z"/>
    <path d="m54.166 58.998c0.36231 0.48186 0.70152 0.97774 1.018 1.4878 0.31974 0.50415 0.64742 1.1278 0.98291 1.87 0.33856 0.73901 0.63637 1.518 0.89394 2.3375 0.26121 0.81665 0.4736 1.5916 0.6376 2.3257 0.16362 0.73248 0.31327 1.6919 0.44904 2.8777l-3.1404-0.0172-0.3267-2.0074-0.26385-0.96759-3.3173-0.129 0.2909 1.4998 0.08184 1.5848-3.5481-0.01943c-0.09361-1.0485-0.21599-1.9332-0.36729-2.654-0.1516-0.72231-0.32448-1.4362-0.51878-2.142-0.18952-0.71156-0.43767-1.4424-0.745-2.1933-0.30857-0.75822-0.61035-1.519-0.90525-2.2823-0.29065-0.7658-0.24482-1.3449 0.13687-1.7337 0.38515-0.39072 0.78431-0.57707 1.1972-0.56058 0.41597 0.01682 1.2308 0.07659 2.4317 0.17814 1.1821 0.09583 2.8643 0.27909 5.0127 0.54497zm-0.4386 5.604c-0.26974-0.93161-0.49448-1.5771-0.67379-1.9346-0.17489-0.36213-0.49172-0.9894-0.95234-1.8853-1.7105-0.20927-2.6392-0.22432-2.7564-0.04129-0.1123 0.17949-0.12507 0.46112-0.03827 0.84434 0.0918 0.37893 0.45535 1.3395 1.0867 2.8722z"/>
    <path d="m62.007 69.935-0.4378-0.0023c-0.24587-0.0013-0.57722-0.11988-0.9953-0.35675-0.4162-0.24211-0.68696-0.49558-0.81059-0.75967-0.12384-0.2646-0.25012-0.69994-0.37884-1.3065-0.12451-0.61148-0.30723-1.3423-0.54861-2.1939-0.24221-0.85447-0.46722-1.5783-0.67487-2.1707-0.20372-0.59383-0.37621-1.0816-0.51723-1.4627-0.1413-0.38184-0.24176-0.64967-0.30118-0.80302-0.0549-0.15316-0.10984-0.32807-0.16482-0.52475-0.05503-0.20077 0.05269-0.43274 0.32241-0.69504 0.27325-0.26487 0.66986-0.38381 1.1878-0.35774 0.51859 0.02625 1.318 0.09071 2.3886 0.19236 1.0544 0.1001 2.3532 0.24029 3.8823 0.41865l4e-6 -1e-6 0.64835 1.5343 0.12163 0.35787 0.07287 0.25988c-1.3859-0.11884-2.4621-0.20323-3.2131-0.25169-0.75507-0.04872-1.181-0.04567-1.2717 0.0096-0.09082 0.05154-0.14709 0.14931-0.16874 0.2933-0.01733 0.14047 0.02381 0.39536 0.12335 0.76426 0.10371 0.36478 0.2439 0.83578 0.42035 1.4123 0.176 0.57127 0.3152 1.0504 0.41781 1.438 0.10246 0.38702 0.18559 0.67237 0.24947 0.85634 0.06808 0.18013 0.12759 0.31062 0.17855 0.39153 0.05517 0.07718 0.19079 0.19987 0.40638 0.3677 0.21492 0.16354 0.51927 0.24991 0.91188 0.25841l4.9583 0.10737c0.33098-0.46146 0.32935-0.34133 0.26776-0.71973-0.06164-0.37875-0.14119-0.75982-0.2387-1.1434-0.09766-0.38412-0.2134-0.77092-0.34731-1.1606-0.26474-0.78516-0.55209-1.602-0.86235-2.4511-0.30776-0.85287-0.6269-1.6116-0.95756-2.2756l3.0897 0.24843c0.49728 1.0442 0.85178 1.8272 1.0658 2.3539 0.21704 0.52511 0.37376 0.92457 0.47058 1.1994l0.14496 0.41146 1.2683-3.7275 2.7771 0.2233-1.539 4.5788c1.1494 0.88546 1.888 1.5364 2.2299 1.9632 0.34002 0.42103 0.65774 0.8478 0.95348 1.2805 0.29432 0.42722 0.55364 0.93625 0.77838 1.527l-2.8-0.014959c-0.39718-0.70954-0.80046-1.2783-1.2099-1.7049-0.40853-0.43279-0.74378-0.76514-1.0045-0.99566-0.2582-0.23487-0.37309-0.33994-0.34389-0.31452l-0.67127-0.5011c0.17676 0.78105 0.29248 1.3791 0.34752 1.7956 0.05499 0.41612 0.11359 0.98488 0.1758 1.706l-3.6831-0.01971z"/>
   </g>
   <g transform="matrix(.86449 0 0 1.0034 6.161 -.14952)" stroke-width=".5" aria-label="picture">
    <path d="m53.095 82.385c0.54676-1.1983 0.98155-2.2028 1.3058-3.0164 0.32824-0.81527 0.62777-1.7113 0.89884-2.6882 0.27534-0.97847 0.47013-1.8724 0.58482-2.6832 0.11456-0.81396 0.20911-1.4997 0.28368-2.0577 0.07452-0.56166 0.10183-0.82796 0.08197-0.79921l6.4932-0.02789c1.5768-0.0068 2.4961 0.14572 2.7765 0.45669 0.28408 0.31003 0.41456 0.73172 0.39207 1.2659-0.02249 0.53037-0.05849 0.9968-0.108 1.3994-0.04503 0.39876-0.17576 0.88571-0.39252 1.4617-0.21272 0.57324-0.38052 0.98568-0.50316 1.2366-0.11824 0.25108-0.33463 0.49828-0.64985 0.74197-0.31625 0.24056-0.63815 0.4111-0.96576 0.5113-0.32408 0.10035-1.9327 0.19892-4.8909 0.29768l-0.15319 0.35906-0.84312 2.0823-0.6204 1.2401-3.5824 0.21354zm6.5237-9.2421c-0.07203 0.7703-0.18016 1.4715-0.32452 2.1037-0.14458 0.62917-0.2097 0.98829-0.19523 1.0767 1.437-0.04406 2.2892-0.09812 2.5716-0.16252 0.2816-0.06421 0.4946-0.19775 0.63945-0.40054 0.14464-0.20248 0.24482-0.55024 0.3007-1.0433 0.0605-0.49286 0.09305-0.8581 0.0977-1.096 0.0046-0.23784-0.09537-0.40473-0.30039-0.50085-0.20078-0.09638-1.1142-0.10343-2.7605-0.01994z"/>
    <path d="m64.872 81.678 0.67957-1.329c0.39644-1.1743 0.67028-2.0567 0.82256-2.6501 0.15651-0.59655 0.30608-1.2346 0.44872-1.9141 0.14688-0.68247 0.25578-1.3321 0.32683-1.9492 0.07543-0.62065 0.12643-1.1515 0.15302-1.5929 0.02659-0.44124 0.03545-0.86678 0.02659-1.2767l3.2718 0.07368c-0.07704 1.2134-0.14986 2.1747-0.21845 2.8836-0.06864 0.70943-0.20822 1.5089-0.41906 2.3997-0.207 0.88875-0.44909 1.7159-0.72653 2.4818-0.27827 0.76812-0.64694 1.6605-1.1071 2.6792z"/>
    <path d="m89.318 70.994c-0.06574 0.8687-0.11422 1.4249-0.14539 1.6682l-0.04679 0.36506-2.625 0.04314c-0.07872 0.96093-0.17901 1.7494-0.30096 2.3654-0.11853 0.61328-0.25702 1.216-0.41557 1.8082-0.15885 0.59336-0.35782 1.223-0.5972 1.8893-0.23641 0.66456-0.40959 1.1165-0.51915 1.3547l-2.7795 0.16543 0.94019-2.7508c0.65453-2.1369 1.0079-3.6345 0.92038-4.8516l-5.8321 0.01245c-1.5289 0.02386-2.362 0.06645-2.4796 0.12754-0.1137 0.05739-0.21331 0.15725-0.29877 0.2996-0.08555 0.13878-0.16913 0.38529-0.25075 0.73967-0.07761 0.35088-0.1696 0.80464-0.27602 1.3615-0.10654 0.55384-0.205 1.0205-0.29535 1.3999-0.09044 0.37974-0.14803 0.65972-0.17273 0.83969-0.02058 0.17611-0.02676 0.30316-0.01852 0.38111 0.01235 0.07403 0.08437 0.18827 0.2159 0.34255 0.13545 0.15015 0.58754 0.20715 1.3515 0.17139l3.1081-0.14544-0.19956 0.76223-0.55407 1.5497-5.8505 0.34856-0.12624 0.0075c-0.48553 0.02893-0.87367-0.06351-1.1632-0.27792-0.28615-0.21913-0.42527-0.4585-0.4167-0.7176 0.01285-0.2593 0.10916-0.69006 0.28868-1.2914 0.18343-0.60419 0.36863-1.321 0.55558-2.15 0.18657-0.82733 0.32626-1.5233 0.41926-2.0886 0.09291-0.56479 0.16464-1.0267 0.21524-1.3861 0.05057-0.35918 0.12849-0.70342 0.23366-1.0326 0.10926-0.33261 0.33577-0.6356 0.67866-0.9085 0.34162-0.27563 0.75443-0.42147 1.2375-0.43822 0.48049-0.01666 1.2452-0.01944 2.2871-0.0085 1.0299 0.01083 2.2302 0.02474 4.0234 0.08275z"/>
    <path d="m90.374 70.974 2.5571-0.01067c-0.03973 0.74262-0.1176 1.4192-0.23372 2.0301-0.11628 0.61177-0.24105 1.2263-0.37435 1.8436-0.13352 0.61501-0.31746 1.2647-0.55216 1.9499-0.23538 0.68712-0.31455 1.1056-0.23706 1.2537 0.07741 0.14803 0.22699 0.21156 0.44832 0.19074 0.22408-0.02429 0.46254-0.04252 0.71525-0.05473 0.25193-0.01217 0.46183-0.04735 0.63002-0.10548 0.16784-0.05801 0.29924-0.17746 0.39437-0.35826 0.09502-0.1806 0.221-0.52515 0.37778-1.0331 0.15974-0.5104 0.31429-1.1008 0.46368-1.771 0.14912-0.6723 0.27047-1.3164 0.3642-1.9326 0.09684-0.61885 0.14844-1.291 0.15489-2.0169l2.2223-0.0093c0.03761 0.56916 0.02978 1.1076-0.02352 1.6159-0.0502 0.50532-0.1287 1.0506-0.23558 1.6363-0.10702 0.58318-0.26468 1.2504-0.47326 2.0025-0.20595 0.75394-0.44743 1.4426-0.72476 2.0662-0.27509 0.62226-0.61385 1.0525-1.0171 1.2899-0.40525 0.23865-1.0432 0.38429-1.9192 0.43643-0.88558 0.05271-1.7588 0.11144-2.6192 0.17628-0.86594 0.0653-1.4344 0.0016-1.6991-0.19214-0.26207-0.19454-0.26907-0.59294-0.02094-1.1934 0.25088-0.59888 0.50101-1.2969 0.7504-2.0937 0.25209-0.79794 0.45356-1.6142 0.60477-2.4494 0.15094-0.8337 0.29989-1.9242 0.44686-3.2708z"/>
    <path d="m96.182 79.851c0.53244-1.2632 0.92002-2.2429 1.1648-2.9438 0.24406-0.69878 0.4531-1.3862 0.62739-2.0627 0.17702-0.67832 0.32268-1.3723 0.43716-2.0823 0.1174-0.7122 0.19301-1.3537 0.22693-1.925l3.0831-0.01087c1.549 0.03838 2.4154 0.17832 2.6218 0.4199 0.20591 0.23782 0.28726 0.55377 0.24446 0.94851-0.0428 0.39496-0.10997 0.83252-0.20152 1.3129-0.0888 0.48094-0.16188 0.8095-0.21926 0.98538-0.0574 0.17289-0.17241 0.39595-0.34522 0.66954-0.17031 0.27412-0.61519 0.58053-1.3395 0.92119 0.4243 0.92888 0.7141 2.052 0.87092 3.3711l-2.3418 0.1406c-0.0928-0.67812-0.21863-1.1771-0.37776-1.4969-0.15643-0.32379-0.45211-0.71852-0.88862-1.1857-0.10951 0.37977-0.20241 0.66785-0.27864 0.86399-0.0763 0.19311-0.32863 0.83269-0.75869 1.9231l-2.4875 0.14881zm3.9814-4.969c0.65636-0.01936 1.0884-0.05907 1.2998-0.11914 0.21082-0.0599 0.36782-0.16714 0.47133-0.32167 0.10631-0.1544 0.17711-0.29193 0.21249-0.4127 0.0383-0.12394 0.10454-0.38086 0.19867-0.77045 0.0969-0.39232 0.047-0.62456-0.15006-0.69723-0.19759-0.07286-0.68784-0.09277-1.4764-0.05934-0.0841 0.57145-0.18786 1.0834-0.31133 1.5358-0.12066 0.4531-0.20221 0.73483-0.24453 0.84469z"/>
    <path d="m103.99 79.3c0.36165-0.95122 0.64317-1.7437 0.84545-2.3795 0.20458-0.63737 0.37039-1.2361 0.49769-1.7968 0.12708-0.55972 0.23987-1.129 0.33841-1.7078 0.10124-0.57816 0.23039-1.4114 0.38731-2.4985l1.9929-0.0084 3.2977-0.0095c-0.0313 0.71516-0.0899 1.2722-0.17608 1.6713l-3.3714 0.02132c-0.0684 0.54529-0.13686 1.0029-0.20538 1.3726l3.3807-0.05259c-0.0865 0.47232-0.22032 1.0226-0.4018 1.6517l-3.4162 0.12396c-0.26805 0.92395-0.45237 1.5042-0.55235 1.7386l3.5089-0.13623c-0.20434 0.57001-0.42791 1.1442-0.67088 1.7227l-5.4765 0.32594z"/>
   </g>
   <g transform="matrix(1.0397 0 0 .99427 -.94889 -2.9251)" stroke-width=".65281" aria-label="&lt;">
    <path d="m82.181 64.018 0.99425 1.3668 5.4609 0.31106 1.2826 2.718c0.45701 0.95323 0.75409 1.8356 0.89342 2.6507l-5.3099-0.12421 0.47518 1.6013c-1.5205-1.3786-3.1964-2.9376-5.0382-4.6882zm9.4682 1.8979c0.44494 0.85417 0.8408 1.7026 1.1885 2.5463 0.3458 0.83906 0.61345 1.7255 0.80394 2.6606l-1.9851-0.04083c-0.01963-0.63964-0.33694-1.6066-0.95637-2.91-0.62543-1.3209-1.0264-2.1316-1.1986-2.4231zm2.8144 5.1958c-0.12685-0.60039-0.2728-1.1535-0.438-1.6593-0.16563-0.5072-0.6986-1.669-1.6083-3.5039l1.3668 0.09743c0.46794 0.85095 0.74986 1.3978 0.84823 1.645 0.10289 0.24236 0.31282 0.74933 0.62872 1.5183 0.3143 0.76506 0.48695 1.4075 0.51913 1.9299zm2.1926 0.04559c-0.10883-0.58948-0.24514-1.1096-0.4091-1.5606-0.15983-0.452-0.32924-0.86403-0.50832-1.236-0.17959-0.37771-0.54266-1.111-1.0924-2.2063l0.90592 0.05474c0.17961 0.23714 0.36329 0.54763 0.551 0.93111 0.18714 0.38232 0.30552 0.63398 0.35554 0.75575 0.04998 0.11709 0.13847 0.30232 0.26532 0.55538 0.12658 0.24796 0.48845 1.1609 0.92241 2.7214zm1.7852 0.02904c-0.1057-0.5809-0.71704-2.3891-0.89092-2.7556-0.17438-0.37209-0.5269-1.0944-1.0606-2.1732l0.81395 0.04924c0.17459 0.23366 0.83263 1.5425 0.88126 1.6626 0.04859 0.11542 0.12387 0.29753 0.24721 0.54701 0.1231 0.24446 0.4183 1.1412 0.84076 2.6807z" fill="url(#linearGradient85872-9)" stroke="#f0f3f5" stroke-width=".62242"/>
   </g>
   <g transform="translate(.52917)" stroke-width=".5" aria-label="to">
    <path d="m41.459 70.999c-0.05444 0.55894-0.09457 0.91675-0.12038 1.0732l-0.03873 0.23477-2.1639 0.02256c-0.06462 0.61546-0.14694 1.1202-0.24699 1.5143-0.09721 0.39218-0.21075 0.77733-0.34067 1.1555-0.1301 0.37871-0.29299 0.78013-0.48882 1.2045-0.19326 0.42293-0.33474 0.71029-0.42421 0.86152l-2.2598 0.07987 0.76228-1.744c0.53196-1.3586 0.7803-2.3738 0.74722-3.0516l-2.2687 0.02361 0.11079-0.9173 0.0046-0.43416 0.35-0.0012z"/>
    <path d="m43.546 75.203c-0.0084 0.01979-0.0182 0.06463-0.0294 0.13453-0.0112 0.0699-0.0028 0.13492 0.0252 0.19502 0.0308 0.05784 0.10636 0.09264 0.22656 0.10439 0.12004 0.01174 0.36939 0.0078 0.747-0.01173 0.37605-0.02162 0.60479-0.03573 0.68733-0.04241 0.08521-0.0089 0.1676-0.04248 0.24716-0.1007 0.08224-0.05824 0.15072-0.12358 0.20546-0.19601 0.05471-0.07454 0.11075-0.19419 0.16813-0.35889 0.05734-0.1646 0.12009-0.35605 0.18826-0.5743 0.06811-0.22023 0.14025-0.48432 0.21642-0.7922 0.0761-0.30762 0.13992-0.60196 0.19149-0.88309 0.05154-0.28311 0.05018-0.46605-0.0041-0.54898-0.05157-0.083-0.15208-0.12598-0.30169-0.12892-0.14986-0.0051-0.37922-0.0063-0.68868-0.0035-0.31052 0.0028-0.52272 0.0079-0.63591 0.01541-0.11057 0.0053-0.2005 0.03424-0.26974 0.08679-0.06652 0.05256-0.11228 0.1201-0.13725 0.2026-0.02221 0.0825-0.06662 0.28436-0.13329 0.60576-0.06671 0.32163-0.12791 0.58271-0.18359 0.78314-0.05292 0.2005-0.10726 0.38162-0.16304 0.54335-0.05301 0.15959-0.17171 0.48261-0.35634 0.96972zm-2.4647 1.0367c0.37313-0.8123 0.60915-1.3514 0.7091-1.6194 0.10269-0.27003 0.19815-0.57251 0.2864-0.90743 0.09101-0.33465 0.17624-0.76852 0.25572-1.3015 0.07942-0.53254 0.14035-0.86768 0.18283-1.0057 0.04247-0.14015 0.15421-0.25322 0.33496-0.33911 0.18322-0.08573 0.43631-0.13339 0.75869-0.14307 0.32404-0.0097 0.93546-0.01579 1.8285-0.01842 0.88708-0.0026 1.5407-2.66e-4 1.9657 7e-3 0.42304 0.0072 0.72172 0.07945 0.89726 0.21652 0.17519 0.13468 0.24014 0.43156 0.19508 0.89099-0.04243 0.45752-0.12072 0.93588-0.23495 1.4354-0.11438 0.50016-0.23157 0.92996-0.35158 1.2893-0.12017 0.35768-0.23516 0.67104-0.34493 0.93998-0.10991 0.26928-0.23069 0.46576-0.3624 0.58934-0.1292 0.12154-0.29772 0.23284-0.50576 0.33396-0.20581 0.09912-0.42297 0.1528-0.65154 0.16087l-4.1257 0.14582c-0.37699 0.01332-0.622-0.02754-0.73397-0.12272-0.10923-0.0976-0.15958-0.205-0.15095-0.32212 0.0086-0.1193 0.02446-0.19585 0.04747-0.22964z"/>
   </g>
   <g transform="translate(.52917 -.40868)" stroke-width=".5" aria-label="the">
    <path d="m38.443 78.517c-0.04998 0.50678-0.08682 0.83137-0.1105 0.97357l-0.03555 0.21338-1.984 0.09381c-0.05918 0.55747-0.13455 1.0156-0.22616 1.3744-0.089 0.35701-0.19293 0.70816-0.31185 1.0535-0.11907 0.34581-0.26812 0.7131-0.44728 1.1021-0.17677 0.38753-0.30616 0.6511-0.38797 0.79028l-2.0639 0.1433 0.69565-1.5951c0.48578-1.2414 0.71266-2.1646 0.68244-2.7743l-2.0703 0.09786 0.101-0.82947 0.0043-0.39098 0.31912-0.01309z"/>
    <path d="m42.187 82.368c-0.11881 0.28023-0.11881 0.28023 0 0 0.11865-0.28181 0.11865-0.28181 0 0zm-4.3556 1.5526c0.35398-0.6731 0.60019-1.1711 0.73947-1.4956 0.13907-0.326 0.26485-0.66067 0.37738-1.0041 0.11501-0.3451 0.20378-0.69136 0.2664-1.0389 0.06518-0.34945 0.11598-0.65941 0.15245-0.93001 0.03905-0.27258 0.08979-0.61274 0.1522-1.0203l1.2973-0.05293 0.71636-0.02625c-0.06362 0.48933-0.112 0.85413-0.14512 1.0942-0.03313 0.23822-0.09178 0.55212-0.17598 0.94192l1.5945-0.05916c0.10032-0.49204 0.17298-0.89986 0.21805-1.2237 0.04755-0.32577 0.06756-0.5921 0.06006-0.79912l1.8794-0.07397-0.07355 0.7657c-0.07361 0.58492-0.1522 1.065-0.23577 1.44-0.08119 0.37525-0.17477 0.72751-0.28078 1.0568-0.10366 0.3276-0.22351 0.64597-0.35962 0.95518-0.13631 0.30774-0.33121 0.67587-0.58507 1.1049l-1.8351 0.12767c0.27671-0.5966 0.47421-1.0345 0.59302-1.3147 0.11865-0.28181 0.22581-0.58787 0.32152-0.91819l-1.6035 0.07213c-0.11533 0.3029-0.23722 0.5889-0.3657 0.858-0.12866 0.26946-0.37489 0.73689-0.73962 1.4039l-1.9365 0.13448zm6.5423-2.4458c0.10601-0.34274 0.10601-0.34274 0 0-0.10366 0.34106-0.10366 0.34106 0 0z"/>
    <path d="m44.571 83.427c0.30961-0.59518 0.55092-1.0912 0.72446-1.4889 0.17565-0.39904 0.31811-0.77345 0.42755-1.1235 0.1093-0.34963 0.20635-0.70489 0.29118-1.0658 0.08718-0.36073 0.19844-0.88031 0.33371-1.5582l1.7249-0.07074 2.883-0.11541c-0.02751 0.44821-0.07911 0.79839-0.15486 1.0506l-2.9451 0.11846c-0.05936 0.34075-0.11876 0.62695-0.1782 0.85855l2.9509-0.1327c-0.07596 0.29766-0.19347 0.64529-0.35272 1.0433l-2.9771 0.17115c-0.23197 0.58017-0.39135 0.94466-0.47775 1.0924l3.052-0.1739c-0.17886 0.36069-0.37439 0.72415-0.5867 1.0905l-4.7338 0.32868z"/>
   </g>
  </g>
 </g>
</svg>
