<?xml version="1.0" encoding="UTF-8"?>
<!-- Created with Inkscape (http://www.inkscape.org/) -->
<svg version="1.1" viewBox="0 0 58.641 16.52" xmlns="http://www.w3.org/2000/svg" xmlns:xlink="http://www.w3.org/1999/xlink">
 <defs>
  <linearGradient id="linearGradient118659">
   <stop stop-color="#ec4e20" offset="0"/>
   <stop stop-color="#ffca3a" offset="1"/>
  </linearGradient>
  <linearGradient id="linearGradient119563" x1="58.714" x2="100" y1="184.51" y2="194.9" gradientUnits="userSpaceOnUse" xlink:href="#linearGradient118659"/>
 </defs>
 <g transform="translate(-68.75 -87.063)">
  <g transform="matrix(1.0544 0 0 .79362 24.303 -59.13)" fill="url(#linearGradient119563)" stroke="#f0f3f5">
   <g transform="translate(.7729 -.068702)" stroke-width=".5" aria-label="BTTP">
    <path d="m45.78 204.68c-0.22202-2.8651-0.39517-4.8272-0.51909-5.8811-0.12413-1.0557-0.32007-2.1975-0.58838-3.4275-0.26301-1.2345-0.55214-2.4848-0.8677-3.7518-0.31055-1.2722-0.6479-2.4906-1.0124-3.6556-0.3663-1.1782-0.72145-2.3198-1.0653-3.4242l3.5338 0.15204c3.8356 0.32855 5.9799 0.6383 6.5769 0.93996 0.59752 0.29949 1.0396 0.72052 1.329 1.2633 0.29378 0.54082 0.51469 1.1038 0.66341 1.6896 0.15389 0.57781 0.2636 1.2606 0.32935 2.0486 0.07116 0.78052-0.11235 1.4545-0.55254 2.0252 0.50598 0.32787 0.89668 0.67641 1.174 1.0463 0.28163 0.36152 0.52712 0.81457 0.73685 1.359 0.21444 0.54272 0.41486 1.2006 0.6014 1.9732 0.19134 0.77045 0.35832 1.642 0.50112 2.6146 0.1425 0.97061 0.17677 1.699 0.10296 2.1871-0.06862 0.4815-0.2537 0.96345-0.55619 1.4471-0.30384 0.4858-0.64929 0.76653-1.037 0.84088-0.38445 0.0813-1.4818 0.18371-3.3264 0.30928l-5.8485 0.39814zm1.9775-13.292c1.2772 0.0808 2.0299 0.0482 2.2742-0.0963 0.24348-0.15121 0.44863-0.36359 0.61578-0.63705 0.1725-0.27975 0.22991-0.59469 0.1725-0.94554-0.05745-0.35113-0.18114-0.63752-0.3714-0.85941-0.19077-0.2225-0.46626-0.37417-0.82745-0.45488-0.36302-0.0883-0.92581-0.16087-1.6931-0.21781-0.76942-0.0573-1.1511-0.0383-1.139 0.0575 0.01821 0.0887 0.13653 0.4378 0.35445 1.046 0.21727 0.59911 0.42187 1.3017 0.61392 2.1075zm1.7848 9.5479c1.0793-0.0459 1.9124-0.10622 2.5075-0.18086 0.59014-0.074 0.90007-0.38152 0.9335-0.9228 0.03898-0.54819-0.01392-1.1321-0.15891-1.7529-0.14528-0.62207-0.32451-1.0972-0.53794-1.4252-0.20844-0.32901-0.5676-0.52686-1.0798-0.59318-0.51594-0.0739-1.0559-0.0946-1.6205-0.0614-0.56905 0.0263-0.84049 0.0791-0.81094 0.15825 0.03545 0.0719 0.124 0.53652 0.26544 1.3927 0.14117 0.85447 0.30845 1.9834 0.50166 3.3853z"/>
    <path d="m63.41 189.89c0.51783 1.8554 0.90701 3.3501 1.1698 4.4916 0.26643 1.1304 0.49691 2.2342 0.69181 3.3124 0.19431 1.0749 0.43867 3.0115 0.7325 5.8024l-3.5237 0.2404c-0.44667-3.3077-0.86699-6.0203-1.2604-8.13-0.39579-2.1224-0.9139-4.0548-1.5572-5.8002l-3.4744-0.13146c-0.62493-1.9302-1.1096-3.3505-1.4508-4.251l0.61631 0.0421c7.5201 0.59075 9.6675 0.71892 16.794 1.1458 0.45449 1.5682 0.73579 2.5672 0.84631 3.005l0.17151 0.64649-3.3967-0.13005c0.46828 1.7637 0.82034 3.185 1.0582 4.2707 0.24113 1.0754 0.44976 2.1257 0.62621 3.1518 0.17594 1.0231 0.39724 2.8664 0.6634 5.5234l-3.188 0.2175c-0.4035-3.145-0.78307-5.7233-1.1382-7.7281-0.3572-2.0162-0.82463-3.8513-1.4047-5.5078l-1.9587-0.0866z"/>
    <path d="m76.62 202.73c-0.11548-1.6312-0.2312-3.0086-0.34714-4.1317-0.11618-1.1312-0.29282-2.3839-0.53048-3.7608-0.23471-1.3883-0.49791-2.6679-0.78999-3.8389-0.28956-1.1826-0.5386-2.1847-0.7466-3.0042-0.20472-0.82809-0.30734-1.2223-0.30734-1.1806l5.2054 0.35122c1.2458 0.0841 2.0382 0.36152 2.3958 0.83151 0.35884 0.46719 0.6317 1.0851 0.81981 1.854 0.19094 0.76091 0.38468 1.6711 0.58117 2.7298 0.19923 1.055 0.3191 1.7378 0.36014 2.0511 0.04443 0.31311 0.07345 0.6425 0.08711 0.98828 0.01365 0.3457-0.04781 0.68135-0.18462 1.0076-0.13716 0.32156-0.3091 0.54543-0.51613 0.67138-0.20782 0.1264-1.4022 0.19916-3.6483 0.21846l0.3091 3.3482 0.06602 1.6775-2.6732 0.18158zm0.92704-12.774c0.29444 1.1137 0.52741 2.1197 0.69965 3.0201 0.17172 0.89198 0.28158 1.4001 0.32992 1.5264l2.2573 7e-3c0.04998 1.5e-4 0.08388-0.10918 0.1017-0.32792 0.01782-0.21868-0.07493-0.74714-0.27879-1.5877-0.20101-0.84357-0.35044-1.4655-0.44788-1.864-0.09398-0.40469-0.24614-0.64281-0.45693-0.71405-0.20793-0.0713-0.93618-0.11138-2.205-0.12005z"/>
   </g>
   <g transform="scale(.82939 1.2057)" stroke-width=".52334" aria-label="&lt;">
    <path d="m103.86 155.33 0.80445 1.9376 4.4479 0.11524 1.052 3.9277c0.3755 1.3795 0.6198 2.6647 0.73442 3.8601l-4.345 0.10666 0.3869 2.3259c-1.2367-1.9426-2.5953-4.1348-4.083-6.5896zm7.728 2.1886c0.3669 1.2346 0.69362 2.4647 0.98079 3.6917 0.28583 1.2212 0.5072 2.5177 0.66482 3.8912l-1.6395 0.0486c-0.0162-0.94387-0.27762-2.3542-0.78749-4.2425-0.51415-1.9113-0.8434-3.082-0.98475-3.5009zm2.3265 7.5213c-0.10514-0.88247-0.2261-1.6935-0.36295-2.4333-0.13718-0.74149-0.57824-2.4297-1.3299-5.088l1.1299 0.0584c0.3876 1.2311 0.62128 2.0241 0.70286 2.3844 0.0853 0.35299 0.25952 1.0919 0.52177 2.2134 0.26108 1.1166 0.40458 2.0599 0.43133 2.8332zm1.822-0.0533c-0.0906-0.86929-0.20411-1.6339-0.34058-2.294-0.13298-0.66163-0.27388-1.2632-0.42277-1.8045-0.14925-0.5496-0.45083-1.6152-0.90706-3.2048l0.75205 0.0243c0.14928 0.34053 0.30199 0.7898 0.45811 1.3473 0.15572 0.55606 0.25425 0.92248 0.29588 1.1002 0.0416 0.17085 0.11531 0.44058 0.22094 0.80882 0.10545 0.36078 0.34016 1.6942 0.70258 3.9902zm1.2709-0.10795c-0.0554-0.5508-0.0961-0.93395-0.12196-1.1491-0.0222-0.21532-0.0666-0.48433-0.13336-0.80727-0.0631-0.32333-0.14852-0.78539-0.25644-1.3867-0.10438-0.60244-0.4393-1.8464-1.0087-3.7449l0.66121-0.01c0.42187 1.1963 0.6891 2.1158 0.80378 2.7642 0.11814 0.64706 0.25261 1.3466 0.40328 2.098 0.15394 0.74272 0.2399 1.485 0.25817 2.2281z" fill="url(#linearGradient119563)" stroke="#f0f3f5"/>
   </g>
  </g>
 </g>
</svg>
